<?xml version="1.0" encoding="utf-8"?>
<!-- Generator: Adobe Illustrator 27.7.0, SVG Export Plug-In . SVG Version: 6.00 Build 0)  -->
<svg version="1.1" id="Layer_1" xmlns="http://www.w3.org/2000/svg" xmlns:xlink="http://www.w3.org/1999/xlink" x="0px" y="0px"
	 viewBox="0 0 767.4 177.1" style="enable-background:new 0 0 767.4 177.1;" xml:space="preserve">
<style type="text/css">
	.st0{fill:#223F99;}
</style>
<g>
	<g>
		<path class="st0" d="M167.8,35.5c0,19.8,10.5,31.9,23.1,31.9c12.5,0,23.1-11.1,23.1-31.8c0-19.3-10.7-32.7-23.2-32.7
			C178.2,2.9,167.8,16.9,167.8,35.5z M226.3,35.2c0,19.4-15.7,35.2-35.2,35.2S156,54.6,156,35.2S171.7,0,191.1,0
			C210.5,0,226.3,15.7,226.3,35.2z"/>
		<path class="st0" d="M667.7,12.3c0,0,0,29.6,0,32.6c0,15.9-7.5,24.4-22.5,24.4c-17.7,0-27-7.5-27-27l-0.1-30
			c0-6.8-0.1-8.1-3.5-9.4V1.5l18.2,0.1v1.3c-3.4,1.3-3.5,2.7-3.5,9.4l0,29.4c0,15.1,3.7,23.9,17.7,23.9c11.2-0.1,17.1-6.6,17.1-21.5
			c0-0.8,0-31.7,0-31.8c0-6.8,0-8.1-2.3-9.4V1.5l8.4,0v1.3C667.7,4.2,667.7,5.6,667.7,12.3z"/>
		<path class="st0" d="M115.6,68.6c0-0.4,0-0.9,0-1.4c1.7-1.6,0.2-4.5-2.3-9.5c-0.4-0.8-10-19.8-10.1-20.1c-2,0.2-3.5,0.1-4.2,0.1
			c-0.3,0-5.8,0-5.8,0v20c0.1,5.3,0.1,8.1,3.4,9.5c0,0.3,0,0.9,0,1.4H79c0-0.3,0-1.1,0-1.4c3.4-1.4,3.4-4.2,3.4-9.5V12.4
			c0-6.8,0-8.2-3.4-9.6c0-0.3,0-0.8,0-1.4h21.1c9.9,0,26.8,3.2,26.7,18.2c0.1,12.7-12.3,15.6-13.7,16.2c1,2,10.6,21.1,11,21.9
			c0.4,0.9,2.3,4.5,2.8,5.6c1.1,2.3,3.5,4,5.6,4c0,0.4,0,1,0,1.4L115.6,68.6L115.6,68.6z M115.8,19.6c0-11.4-8.5-15.1-19.3-15.1
			h-3.4v30.3l5.8,0C106.1,34.8,115.8,32.2,115.8,19.6z"/>
		<path class="st0" d="M49,23c0,13.2-8.6,21.5-28.6,21.5h-6.1v13.2c0,5.3,0,8.2,3.3,9.5c0,0.6,0,1,0,1.4H0c0-0.3,0-0.9,0-1.4
			c3.3-1.4,3.3-4.2,3.3-9.5V12.4c0-6.8,0-8.2-3.3-9.6c0-0.5,0-0.9,0-1.4l20.3,0C40.7,1.5,49,11.5,49,23z M38.1,23
			c0-11.5-7-18.6-19.1-18.6h-4.7v37.1H19C30.5,41.6,38.1,36.1,38.1,23z"/>
		<path class="st0" d="M447.8,61.2v7.4h-45.7c0-0.4,0-1.4,0-1.4c3.4-1.4,3.4-5.9,3.4-9.6l0-45.3c-0.1-6,0-8.2-3.4-9.5
			c0-0.3,0-1.1,0-1.4l45.6,0v7.3h-1.4c-2-3.3-4.7-3.3-9.6-3.3l-20.3,0l0,26.5h14.4c6.2,0,8-0.1,9.6-2.4h1.4v8.8h-1.4
			c-1.7-2.4-3.4-2.4-9.6-2.4h-14.4l0,28.3h20.5c6.8,0,8.1-1.3,9.5-3.2L447.8,61.2L447.8,61.2z"/>
		<path class="st0" d="M530.2,1.4c0,0.2,0,1.2,0,1.4c-2.2,1.4-2.2,6-2.2,9.6v56.2h-4.5l-41.7-52.5l0,41.6c0,4.1,0,8.2,2.2,9.6
			c0,0.1,0,1.2,0,1.3l-8,0c0-0.1,0-1.1,0-1.3c2.2-1.4,2.2-5.5,2.2-9.5V10.4c0-3.6-1.5-6.7-3.3-7.5c0-0.4-0.1-0.6,0-1.4l8.2-0.1
			l41.4,51.6V12.4c0-4.7,0-8.2-2.2-9.6l0-1.4L530.2,1.4z"/>
		<path class="st0" d="M581.6,67.2v1.3l-17.7,0v-1.3c3.3-1.4,3.3-4.2,3.3-9.6c0-0.1,0-45.3,0-45.3c0-6.8,0-8.2-3.3-9.6
			c0-0.3,0-1.4,0-1.4h17.7c0,0,0,1,0,1.4c-3.3,1.4-3.3,2.7-3.3,9.6v45.3C578.2,63.1,578.2,65.9,581.6,67.2z"/>
		<path class="st0" d="M371.9,1.8c0.4,0,1.3,0,1.3,0v11.4h-1.3c-2.8-4-7-8.1-15-8.1c-13.6,0-22.6,11.5-22.5,30
			C334.5,53.4,343,66,356.9,66c7.3,0,11.7-2.4,16.5-6.6h0.1L376,64c-5.4,3.4-11.1,5.6-19.3,5.6c-23.6,0-34.9-18.7-34.9-34.5
			c0-14.5,11.2-34.1,35.1-34.1C366,1.1,366,4.3,371.9,1.8z"/>
		<path class="st0" d="M255.2,68.6h-1.5L252,57.3c0,0,1.2,0,1.6,0c4.1,5.2,12.1,8.3,20.1,8.3c8.7,0,13.8-3.4,13.8-10.2
			c0-17.6-34.7-14.6-34.8-35.9c0-12.2,10.8-18.8,23.2-18.8c6.3,0,12,1.7,16.4,4.3c0,1.1,0,7.8,0,7.8h-0.1c-4.2-6-9.1-8-16.5-8
			c-8.2,0-13.5,3.2-13.5,9.6c0,16.1,34.3,13.4,34.3,36.3c0,12-8.8,18.7-22.9,18.7C261.9,69.3,258.6,65,255.2,68.6z"/>
		<path class="st0" d="M767.4,67.2v1.4h-17.8v-1.4c3.3-1.4,3.3-4.1,3.3-9.4V15.3l-22.6,53.3h-3.2l-22.8-56l0,45.1
			c0,5.3,0,8.2,2.1,9.5v1.4h-7.9v-1.4c2.2-1.4,2.1-4.2,2.2-9.5V12.4c0-4.7,0.5-8.2-2.2-9.6V1.4l12.3,0l21.6,52.8L755,1.4h12.4v1.4
			c-3.2,1.4-3.3,2.7-3.3,9.5v45.5C764.1,63.2,764.1,65.9,767.4,67.2z"/>
	</g>
	<g>
		<rect x="288.6" y="109.4" class="st0" width="190.2" height="2.4"/>
	</g>
	<g>
		<path class="st0" d="M142.2,152.3h13.5l0.5,2.4h-11.3v8.5h10v2.3h-10v8.8h11.7l-0.5,2.4h-13.8V152.3z"/>
		<path class="st0" d="M172.5,157.6L172.5,157.6l-0.1,19.2h-2.6v-24.6h1.3l15.8,19.1h0.1v-19h2.6v24.6h-1.1L172.5,157.6z"/>
		<path class="st0" d="M204.7,152.3h6.8c5.1,0,8.1,3.1,8.1,7.2c0,3.3-1.9,5.8-5,6.8l8.1,10.5h-3.3l-7.5-9.9h-0.6h-3.9v9.9h-2.7
			V152.3z M211.3,164.5c3.4,0,5.6-1.8,5.6-4.9c0-3.2-2.3-4.9-5.4-4.9h-4.1v9.8L211.3,164.5L211.3,164.5z"/>
		<path class="st0" d="M234.3,152.3h2.7v24.5h-2.7V152.3z"/>
		<path class="st0" d="M250.4,164.6c0-7.3,5.3-12.6,12.1-12.6c2.7,0,4.8,0.7,6.5,1.8l0.5,3.3c-2-1.6-4.2-2.6-6.8-2.6
			c-5.3,0-9.5,4-9.5,10.1c0,6.1,4.1,10.1,9.7,10.1c2.5,0,5.1-0.9,7.2-2.6l-0.5,3.2c-1.8,1.1-4,1.8-6.7,1.8
			C255.2,177.2,250.4,171.5,250.4,164.6z"/>
		<path class="st0" d="M299.6,165.8h-14v11h-2.7v-24.5h2.7v11.1h14v-11.1h2.7v24.5h-2.7V165.8z"/>
		<path class="st0" d="M317.4,152.1h1.2l10.2,13.5h0.1l10.1-13.5h1v24.7h-2.6v-18.6l-8.5,11.1h-0.4L320,158v18.8h-2.6L317.4,152.1
			L317.4,152.1z"/>
		<path class="st0" d="M355.3,152.3h13.5l0.5,2.4h-11.3v8.5h10v2.3h-10v8.8h11.7l-0.5,2.4h-13.8V152.3z"/>
		<path class="st0" d="M385.5,157.6L385.5,157.6l-0.1,19.2h-2.6v-24.6h1.3l15.8,19.1h0.1v-19h2.6v24.6h-1.1L385.5,157.6z"/>
		<path class="st0" d="M423,154.7h-8.1v-2.4h18.8v2.4h-8.1v22.1H423L423,154.7L423,154.7z"/>
		<path class="st0" d="M460,164.6c0-7.3,5.3-12.6,12.1-12.6c2.7,0,4.8,0.7,6.5,1.8l0.5,3.3c-2-1.6-4.2-2.6-6.8-2.6
			c-5.3,0-9.5,4-9.5,10.1c0,6.1,4.1,10.1,9.7,10.1c2.5,0,5.1-0.9,7.2-2.6l-0.5,3.2c-1.8,1.1-4,1.8-6.7,1.8
			C464.8,177.2,460,171.5,460,164.6z"/>
		<path class="st0" d="M492.5,152.3h13.5l0.5,2.4h-11.3v8.5h10v2.3h-10v8.8h11.7l-0.5,2.4h-13.8L492.5,152.3L492.5,152.3z"/>
		<path class="st0" d="M522.7,157.6L522.7,157.6l-0.1,19.2H520v-24.6h1.3l15.8,19.1h0.1v-19h2.6v24.6h-1.2L522.7,157.6z"/>
		<path class="st0" d="M560.2,154.7h-8.1v-2.4h18.8v2.4h-8.1v22.1h-2.7L560.2,154.7L560.2,154.7z"/>
		<path class="st0" d="M583.2,152.3h6.8c5.2,0,8.1,3.1,8.1,7.2c0,3.3-1.9,5.8-5,6.8l8.1,10.5h-3.3l-7.5-9.9h-0.6h-3.9v9.9h-2.7
			V152.3z M589.8,164.5c3.4,0,5.6-1.8,5.6-4.9c0-3.2-2.3-4.9-5.4-4.9h-4.1v9.8L589.8,164.5L589.8,164.5z"/>
		<path class="st0" d="M612.8,152.3h13.5l0.5,2.4h-11.3v8.5h10v2.3h-10v8.8h11.7l-0.5,2.4h-13.8L612.8,152.3L612.8,152.3z"/>
	</g>
</g>
</svg>
